<?xml version="1.0" encoding="UTF-8"?>
<svg width="960" height="628" viewBox="0 0 960 628" fill="none" xmlns="http://www.w3.org/2000/svg" role="img" aria-labelledby="title desc">
  <title id="title">자동 생성 프로젝트 카드</title>
  <desc id="desc">진행 중인 프로젝트와 완료한 프로젝트를 요약한 보조 SVG 카드입니다.</desc>
  <style>
    .panel { fill: #f6f8fa; }
    .title { fill: #0f172a; font: 700 24px -apple-system, BlinkMacSystemFont, "Segoe UI", "Noto Sans KR", Arial, sans-serif; }
    .subtitle { fill: #475569; font: 400 13px -apple-system, BlinkMacSystemFont, "Segoe UI", "Noto Sans KR", Arial, sans-serif; }
    .section { fill: #111827; font: 700 17px -apple-system, BlinkMacSystemFont, "Segoe UI", "Noto Sans KR", Arial, sans-serif; }
    .section-note { fill: #64748b; font: 400 12px -apple-system, BlinkMacSystemFont, "Segoe UI", "Noto Sans KR", Arial, sans-serif; }
    .card { fill: #ffffff; stroke: #d0d7de; stroke-width: 1; }
    .project { fill: #0f172a; font: 700 16px -apple-system, BlinkMacSystemFont, "Segoe UI", "Noto Sans KR", Arial, sans-serif; }
    .description { fill: #334155; font: 400 13px -apple-system, BlinkMacSystemFont, "Segoe UI", "Noto Sans KR", Arial, sans-serif; }
    .label { fill: #64748b; font: 700 11px -apple-system, BlinkMacSystemFont, "Segoe UI", "Noto Sans KR", Arial, sans-serif; }
    .detail { fill: #475569; font: 400 12px -apple-system, BlinkMacSystemFont, "Segoe UI", "Noto Sans KR", Arial, sans-serif; }
    .stack { fill: #475569; font: 700 12px -apple-system, BlinkMacSystemFont, "Segoe UI", "Noto Sans KR", Arial, sans-serif; }
    .pill-text { fill: #ffffff; font: 700 11px -apple-system, BlinkMacSystemFont, "Segoe UI", "Noto Sans KR", Arial, sans-serif; }
    .accent-progress { fill: #0969da; }
    .accent-completed { fill: #1a7f37; }
  </style>
  <rect class="panel" x="0" y="0" width="960" height="628" rx="10"/>
  <text class="title" x="40" y="40">Project Portfolio Snapshot</text>
  <text class="subtitle" x="40" y="62">README 본문에서는 표를 우선 사용하고, 이 카드는 보조 요약으로 제공합니다.</text>

  <text class="section" x="40" y="100">Now Building · 진행 중</text>
  <text class="section-note" x="214" y="100">현재 개발 중인 프로젝트</text>
  <g transform="translate(40 112)">
    <rect class="card" x="0" y="0" width="426" height="132" rx="8"/>
    <rect class="accent-progress" x="0" y="0" width="5" height="132" rx="2.5"/>
    <rect class="accent-progress" x="24" y="18" width="73" height="22" rx="11"/>
    <text class="pill-text" x="36" y="33">진행 중</text>
    <text class="project" x="24" y="64">cwnu-campus-hub</text>
    <text class="description" x="24" y="87">창원대학교 생활 편의 기능을 모은 캠퍼스 허브</text>
    <text class="label" x="24" y="111">현재 작업</text>
    <text class="detail" x="90" y="111">창원대학교 생활 편의 기능을 모은 캠퍼스</text>
    <text class="stack" x="24" y="126">TypeScript / React / Node.js</text>
  </g>
  <g transform="translate(494 112)">
    <rect class="card" x="0" y="0" width="426" height="132" rx="8"/>
    <rect class="accent-progress" x="0" y="0" width="5" height="132" rx="2.5"/>
    <rect class="accent-progress" x="24" y="18" width="73" height="22" rx="11"/>
    <text class="pill-text" x="36" y="33">진행 중</text>
    <text class="project" x="24" y="64">3AM Computer Science: Mystery Room</text>
    <text class="description" x="24" y="87">컴퓨터공학 개념을 퍼즐로 녹인 Godot 게임</text>
    <text class="label" x="24" y="111">현재 작업</text>
    <text class="detail" x="90" y="111">컴퓨터공학 개념을 퍼즐로 녹인 Godot 게임</text>
    <text class="stack" x="24" y="126">Godot / GDScript</text>
  </g>
  <g transform="translate(40 264)">
    <rect class="card" x="0" y="0" width="426" height="132" rx="8"/>
    <rect class="accent-progress" x="0" y="0" width="5" height="132" rx="2.5"/>
    <rect class="accent-progress" x="24" y="18" width="73" height="22" rx="11"/>
    <text class="pill-text" x="36" y="33">진행 중</text>
    <text class="project" x="24" y="64">GitHub Profile Dashboard</text>
    <text class="description" x="24" y="87">프로필 README 자동 생성 프로젝트</text>
    <text class="label" x="24" y="111">현재 작업</text>
    <text class="detail" x="90" y="111">프로필 README 자동 생성 프로젝트</text>
    <text class="stack" x="24" y="126">TypeScript / GitHub Actions</text>
  </g>

  <text class="section" x="40" y="450">Completed · 완료</text>
  <text class="section-note" x="182" y="450">구현 결과 중심 요약</text>
  <g transform="translate(40 462)">
    <rect class="card" x="0" y="0" width="426" height="132" rx="8"/>
    <rect class="accent-completed" x="0" y="0" width="5" height="132" rx="2.5"/>
    <rect class="accent-completed" x="24" y="18" width="52" height="22" rx="11"/>
    <text class="pill-text" x="36" y="33">완료</text>
    <text class="project" x="24" y="64">DBMS Web Board Project</text>
    <text class="description" x="24" y="87">Node.js와 SQL 기반 웹 게시판</text>
    <text class="label" x="24" y="111">구현 결과</text>
    <text class="detail" x="90" y="111">회원가입, 로그인, 게시글, 댓글, 좋아요,</text>
    <text class="stack" x="24" y="126">Node.js / Express / SQL</text>
  </g>
  <g transform="translate(494 462)">
    <rect class="card" x="0" y="0" width="426" height="132" rx="8"/>
    <rect class="accent-completed" x="0" y="0" width="5" height="132" rx="2.5"/>
    <rect class="accent-completed" x="24" y="18" width="52" height="22" rx="11"/>
    <text class="pill-text" x="36" y="33">완료</text>
    <text class="project" x="24" y="64">Smart Edu Platform</text>
    <text class="description" x="24" y="87">개인화 학습 관리 앱 팀 프로젝트</text>
    <text class="label" x="24" y="111">구현 결과</text>
    <text class="detail" x="90" y="111">요구사항 분석, 설계, 구현 구조, 문서화</text>
    <text class="stack" x="24" y="126">React Native / Expo</text>
  </g>
</svg>
